<svg version="1.1" id="Layer_1" xmlns="http://www.w3.org/2000/svg" xmlns:xlink="http://www.w3.org/1999/xlink" x="0px" y="0px"
	 width="100%" viewBox="0 0 1024 544" enable-background="new 0 0 1024 544" xml:space="preserve">
<path fill="#000000" opacity="1.000000" stroke="none" 
	d="
M650.846802,351.999878 
	C650.848511,336.335663 650.473328,321.159363 650.954956,306.010345 
	C651.472351,289.735321 653.803101,273.733917 663.914001,260.117340 
	C683.378418,233.904099 715.278198,233.513916 736.668518,248.616913 
	C741.874939,252.292984 744.690063,257.873230 747.994629,263.052917 
	C748.784241,264.290619 749.466064,265.597107 750.254089,266.970520 
	C753.087708,265.626099 753.974487,262.931458 755.444153,260.850739 
	C763.433167,249.540070 774.129150,242.718018 787.754944,240.108414 
	C805.832520,236.646149 821.761414,240.541977 835.236450,253.271881 
	C843.804077,261.365692 846.272644,272.174164 847.154541,283.221436 
	C849.451111,311.991913 847.737366,340.839935 848.244019,369.649780 
	C848.297974,372.720673 847.227844,374.291718 843.927795,374.254974 
	C826.728882,374.063477 829.881348,376.246613 829.763000,361.035431 
	C829.590576,338.873596 829.768982,316.709229 829.699890,294.546295 
	C829.678589,287.712738 829.350220,280.800476 827.220825,274.293732 
	C823.010132,261.427155 808.318909,253.609024 794.551819,256.815979 
	C777.075073,260.887085 763.196350,271.495544 760.302002,295.805786 
	C759.533142,302.263916 758.882996,308.693634 758.909241,315.206757 
	C758.980408,332.870361 758.847839,350.535095 758.993652,368.197784 
	C759.029907,372.591339 757.742981,374.460327 752.995972,374.326080 
	C738.793030,373.924469 740.875427,375.860291 740.805115,362.034576 
	C740.705078,342.371521 740.711182,322.707153 740.825012,303.044220 
	C740.858948,297.183502 740.519287,291.332184 739.480591,285.632233 
	C737.176025,272.986053 730.134460,263.348480 718.165833,258.606964 
	C705.710022,253.672455 693.399658,255.124878 683.073303,264.233948 
	C673.220764,272.925049 669.560669,284.734375 669.369568,297.439575 
	C669.023865,320.428558 669.216675,343.425629 669.180420,366.419312 
	C669.168091,374.240967 669.161987,374.284210 661.515503,374.240112 
	C649.597595,374.171417 650.941528,375.494659 650.859619,363.497131 
	C650.834595,359.831512 650.850159,356.165619 650.846802,351.999878 
z"/>
<path fill="#000000" opacity="1.000000" stroke="none" 
	d="
M324.293030,318.798523 
	C332.601837,336.758759 340.747559,354.380890 349.307465,372.899078 
	C342.576721,373.637360 336.831635,373.507874 331.125061,373.100464 
	C328.610962,372.920990 328.084229,370.237640 327.175629,368.344269 
	C319.395386,352.131775 311.583984,335.932983 303.997284,319.629852 
	C302.430481,316.262909 300.412750,314.998444 296.732971,315.021057 
	C274.574249,315.157349 252.414124,315.142639 230.255035,315.048340 
	C227.189178,315.035278 225.403671,316.002747 224.072449,318.851746 
	C216.250610,335.591522 208.170013,352.210876 200.419342,368.982971 
	C198.930969,372.203735 197.140030,373.645905 193.628891,373.388519 
	C188.694901,373.026794 183.693604,373.860260 178.770828,372.872009 
	C178.166489,369.894745 179.750107,367.757721 180.774902,365.588043 
	C195.068359,335.326385 209.449783,305.106323 223.800949,274.871918 
	C235.723495,249.753983 247.644028,224.635086 259.533356,199.501419 
	C260.544128,197.364685 261.249512,195.038651 264.256653,195.136871 
	C267.064545,195.228592 267.564178,197.617508 268.448334,199.508179 
	C285.724609,236.451340 302.970520,273.408691 320.230713,310.359375 
	C321.498962,313.074432 322.828796,315.760742 324.293030,318.798523 
M280.608612,269.784485 
	C275.256927,258.438049 269.905212,247.091629 263.977234,234.523361 
	C253.929504,255.710449 244.474075,275.648621 234.669662,296.322632 
	C254.641647,296.322632 273.295837,296.322632 292.868744,296.322632 
	C288.671936,287.242645 284.794891,278.854370 280.608612,269.784485 
z"/>
<path fill="#000000" opacity="1.000000" stroke="none" 
	d="
M448.107849,267.206299 
	C472.352173,230.756180 524.289001,227.100891 555.848450,249.647888 
	C561.021484,253.343643 565.316284,257.998535 568.843567,263.351410 
	C570.465271,265.812439 570.147461,267.340912 567.664124,269.076813 
	C558.118713,275.748810 558.178040,275.816223 549.825134,267.692810 
	C525.308777,243.850128 476.819489,246.826309 459.451385,282.305542 
	C444.577942,312.688660 463.972626,350.790497 497.583557,356.590149 
	C519.913574,360.443268 539.123535,354.786285 554.308044,337.410645 
	C555.626526,335.901947 556.951111,334.686920 558.961060,336.003967 
	C562.819702,338.532318 566.611328,341.162720 570.685852,343.923615 
	C564.812683,353.987762 556.524536,360.960663 546.642700,365.504578 
	C520.789124,377.392700 494.630310,378.466888 469.579224,363.659027 
	C435.704681,343.635498 426.328094,300.579620 448.107849,267.206299 
z"/>
<path fill="#000000" opacity="1.000000" stroke="none" 
	d="
M379.263275,373.522400 
	C366.602692,373.291473 366.608582,373.291473 366.613678,361.256134 
	C366.622375,340.772522 365.889923,320.255524 366.822052,299.814240 
	C367.863403,276.977325 384.114624,246.771790 412.287567,239.441284 
	C419.828979,237.479034 427.238403,238.872330 433.065857,243.717102 
	C431.656311,248.331314 428.302368,251.941544 426.028290,256.138947 
	C425.418274,257.264862 424.401764,257.775391 423.091553,257.527710 
	C410.447693,255.137619 403.437286,263.358612 396.514740,271.681335 
	C388.206024,281.670624 385.601257,293.618347 385.387543,306.147888 
	C385.035461,326.791840 385.032837,347.442200 384.968140,368.090118 
	C384.956543,371.786255 384.324677,374.493622 379.263275,373.522400 
z"/>
<path fill="#000000" opacity="1.000000" stroke="none" 
	d="
M599.677612,354.999359 
	C599.676819,319.354584 599.672852,284.209747 599.678772,249.064880 
	C599.680054,241.795135 599.697021,241.760651 606.691956,241.772369 
	C618.716187,241.792511 617.292664,240.633026 617.306274,252.514465 
	C617.349854,290.657410 617.317444,328.800446 617.308594,366.943420 
	C617.306885,374.224792 617.294617,374.273895 610.282837,374.234772 
	C598.155823,374.167023 599.819580,375.402863 599.684753,363.494293 
	C599.654541,360.829590 599.678833,358.164307 599.677612,354.999359 
z"/>
<path fill="#000000" opacity="1.000000" stroke="none" 
	d="
M619.210449,192.855408 
	C623.549072,198.388123 624.479248,203.939468 620.846802,209.789612 
	C617.462402,215.240143 611.736877,217.831161 605.963318,216.745529 
	C599.642334,215.556946 596.112244,211.471375 594.610474,205.519394 
	C593.168396,199.803757 594.955261,194.943039 599.498596,191.300812 
	C604.206909,187.526291 609.416260,186.751266 614.862549,189.781158 
	C616.301758,190.581818 617.601624,191.632980 619.210449,192.855408 
z"/>
</svg>