<?xml version="1.0" encoding="utf-8"?>
<!-- Generator: Adobe Illustrator 19.0.0, SVG Export Plug-In . SVG Version: 6.00 Build 0)  -->
<svg version="1.1" id="layer" xmlns="http://www.w3.org/2000/svg" xmlns:xlink="http://www.w3.org/1999/xlink" x="0px" y="0px"
	 viewBox="-153 -46 652 652" style="enable-background:new -153 -46 652 652;" xml:space="preserve">
<style type="text/css">
	.st0{fill:#005FA0;}
</style>
<path class="st0" d="M-118.1,243.1v24h25.3v-24H-79v62.6h-13.8v-27h-25.3v27h-13.8v-62.6H-118.1z M-70,267.1
	c1.3-1.9,2.9-3.5,4.9-4.7c2-1.2,4.2-2,6.7-2.5c2.5-0.5,5-0.7,7.5-0.7c2.3,0,4.6,0.2,6.9,0.5c2.3,0.3,4.5,1,6.4,1.9
	c1.9,0.9,3.5,2.2,4.7,3.9c1.2,1.7,1.8,3.9,1.8,6.6v23.6l0,5.9c0.1,2.3,0.1,2.4,0.5,4.2l-12,0c-0.3-1-0.2-1-0.4-1.8
	c-0.1-0.7-0.1-1.8-0.2-2.6c-2,2-4.3,3.5-7,4.3c-2.7,0.8-5.4,1.2-8.2,1.2c-2.2,0-4.2-0.3-6-0.8c-1.9-0.5-3.5-1.3-4.9-2.5
	c-1.4-1.1-2.5-2.5-3.3-4.2c-0.8-1.7-1.2-3.7-1.2-6.1c0-2.6,0.5-4.7,1.4-6.4c0.9-1.7,2.1-3,3.5-4c1.4-1,3.1-1.7,4.9-2.2
	c1.8-0.5,3.7-0.9,5.6-1.2c1.9-0.3,3.7-0.5,5.5-0.7c1.8-0.2,3.4-0.4,4.8-0.8s2.5-0.9,3.3-1.5c0.8-0.7,1.2-1.7,1.1-2.9
	c0-1.3-0.2-2.4-0.7-3.2c-0.4-0.8-1-1.4-1.7-1.8s-1.6-0.7-2.5-0.9c-1-0.1-2-0.2-3.1-0.2c-2.4,0-4.4,0.5-5.8,1.6
	c-1.4,1.1-2.2,2.8-2.4,5.3h-12.5C-72,271.4-71.3,269-70,267.1L-70,267.1z M-45.5,284.6c-0.8,0.3-1.6,0.5-2.5,0.7
	c-0.9,0.2-1.9,0.3-2.8,0.4c-1,0.1-2,0.3-3,0.4c-0.9,0.2-1.9,0.4-2.8,0.7c-0.9,0.3-1.7,0.7-2.4,1.2s-1.2,1.1-1.6,1.9
	c-0.4,0.8-0.6,1.7-0.6,2.9c0,1.1,0.2,2,0.6,2.8c0.4,0.8,1,1.4,1.7,1.8c0.7,0.4,1.5,0.7,2.4,0.9c0.9,0.2,1.9,0.3,2.9,0.3
	c2.4,0,4.3-0.4,5.7-1.2c1.3-0.8,2.3-1.8,3-2.9c0.6-1.1,1-2.3,1.2-3.5c0.1-1.2,0.2-2.1,0.2-2.8v-4.6C-44,284-44.7,284.4-45.5,284.6z
	 M239.6,267.1c1.3-1.9,2.9-3.5,4.9-4.7c2-1.2,4.2-2,6.7-2.5c2.5-0.5,5-0.7,7.5-0.7c2.3,0,4.6,0.2,6.9,0.5c2.3,0.3,4.5,1,6.4,1.9
	c1.9,0.9,3.5,2.2,4.7,3.9c1.2,1.7,1.8,3.9,1.8,6.6v23.6l0,5.9c0.1,2.3,0.1,2.4,0.5,4.2l-12,0c-0.3-1-0.2-1-0.4-1.8
	c-0.1-0.7-0.1-1.8-0.2-2.6c-2,2-4.3,3.5-7,4.3c-2.7,0.8-5.4,1.2-8.2,1.2c-2.2,0-4.2-0.3-6-0.8c-1.9-0.5-3.5-1.3-4.9-2.5
	c-1.4-1.1-2.5-2.5-3.3-4.2c-0.8-1.7-1.2-3.7-1.2-6.1c0-2.6,0.5-4.7,1.4-6.4c0.9-1.7,2.1-3,3.5-4c1.4-1,3.1-1.7,4.9-2.2
	c1.8-0.5,3.7-0.9,5.6-1.2c1.9-0.3,3.7-0.5,5.5-0.7c1.8-0.2,3.4-0.4,4.8-0.8c1.4-0.4,2.5-0.9,3.3-1.5s1.2-1.7,1.1-2.9
	c0-1.3-0.2-2.4-0.7-3.2c-0.4-0.8-1-1.4-1.7-1.8c-0.7-0.4-1.6-0.7-2.5-0.9c-1-0.1-2-0.2-3.1-0.2c-2.4,0-4.4,0.5-5.8,1.6
	c-1.4,1.1-2.2,2.8-2.4,5.3h-12.5C237.6,271.4,238.3,269,239.6,267.1L239.6,267.1z M264.1,284.6c-0.8,0.3-1.6,0.5-2.5,0.7
	c-0.9,0.2-1.9,0.3-2.8,0.4c-1,0.1-2,0.3-3,0.4c-0.9,0.2-1.9,0.4-2.8,0.7c-0.9,0.3-1.7,0.7-2.4,1.2c-0.7,0.5-1.2,1.1-1.6,1.9
	c-0.4,0.8-0.6,1.7-0.6,2.9c0,1.1,0.2,2,0.6,2.8c0.4,0.8,1,1.4,1.7,1.8c0.7,0.4,1.5,0.7,2.4,0.9c0.9,0.2,1.9,0.3,2.9,0.3
	c2.4,0,4.3-0.4,5.7-1.2c1.3-0.8,2.3-1.8,3-2.9c0.6-1.1,1-2.3,1.2-3.5c0.1-1.2,0.2-2.1,0.2-2.8v-4.6
	C265.6,284,264.9,284.4,264.1,284.6z M-12.6,260.4v5.2h0.3c1.8-2.3,3.4-3.7,5.9-4.9c2.6-1.2,5.3-1.6,7.9-1.6c3.3,0,6.1,0.5,8.2,1.4
	c2.1,0.9,3.8,2.2,5,3.8c1.2,1.6,2.1,3.6,2.6,5.9c0.5,2.3,0.7,4.9,0.7,7.7v27.9H5.7v-25.6c0-3.7-0.6-6.5-1.8-8.4
	c-1.2-1.8-3.3-2.8-6.2-2.8c-3.4,0-5.9,1-7.4,3c-1.5,2-2.3,5.3-2.3,10v23.8h-12.4v-45.3C-24.4,260.4-12.6,260.4-12.6,260.4z
	 M297,260.4v5.2h0.3c1.8-2.3,3.4-3.7,5.9-4.9c2.6-1.2,5.3-1.6,7.9-1.6c3.3,0,6.1,0.5,8.2,1.4c2.1,0.9,3.8,2.2,5,3.8
	c1.2,1.6,2.1,3.6,2.6,5.9c0.5,2.3,0.7,4.9,0.7,7.7v27.9h-12.5v-25.6c0-3.7-0.6-6.5-1.8-8.4c-1.2-1.8-3.3-2.8-6.2-2.8
	c-3.4,0-5.9,1-7.4,3c-1.5,2-2.3,5.3-2.3,10v23.8h-12.4v-45.3C285.2,260.4,297,260.4,297,260.4z M437.4,260.4v5.2h0.3
	c1.8-2.3,3.4-3.7,5.9-4.9c2.6-1.2,5.3-1.6,7.9-1.6c3.3,0,6.1,0.5,8.2,1.4c2.1,0.9,3.8,2.2,5,3.8c1.2,1.6,2.1,3.6,2.6,5.9
	c0.5,2.3,0.7,4.9,0.7,7.7v27.9h-12.5v-25.6c0-3.7-0.6-6.5-1.8-8.4c-1.2-1.8-3.3-2.8-6.2-2.8c-3.4,0-5.9,1-7.4,3
	c-1.5,2-2.3,5.3-2.3,10v23.8h-12.4v-45.3H437.4L437.4,260.4z M88.9,294.9c1.9,1.8,4.6,2.7,8.1,2.7c2.5,0,4.7-0.6,6.5-1.9
	c1.8-1.3,2.9-2.6,3.3-4h11c-1.8,5.4-4.4,9.3-8.1,11.7c-3.6,2.3-8,3.5-13.1,3.5c-3.6,0-6.8-0.6-9.6-1.7c-2.9-1.1-5.3-2.8-7.3-4.9
	c-2-2.1-3.5-4.6-4.6-7.5c-1.1-2.9-1.6-6.1-1.6-9.7c0-3.4,0.6-6.5,1.7-9.5c1.1-2.9,2.7-5.5,4.7-7.6c2-2.1,4.5-3.8,7.3-5
	c2.8-1.2,6-1.8,9.4-1.8c3.9,0,7.2,0.7,10.1,2.2c2.9,1.5,5.2,3.5,7.1,6c1.8,2.5,3.2,5.4,4,8.6c0.8,3.2,1.1,6.6,0.9,10.1H85.8
	C86,290.1,87,293.1,88.9,294.9z M102.9,271c-1.5-1.6-3.8-2.5-6.8-2.5c-2,0-3.6,0.3-5,1c-1.3,0.7-2.4,1.5-3.2,2.5
	c-0.8,1-1.3,2.1-1.7,3.2c-0.3,1.1-0.5,2.1-0.6,3H106C105.5,275,104.4,272.6,102.9,271L102.9,271z M135.7,243.1v62.6h-12.5v-62.6
	H135.7z M153.3,294.5c0.6,1,1.3,1.7,2.2,2.4c0.9,0.6,1.9,1.1,3,1.4c1.1,0.3,2.3,0.4,3.6,0.4c0.9,0,1.8-0.1,2.8-0.3
	c1-0.2,1.8-0.5,2.6-1c0.8-0.4,1.4-1,2-1.8c0.5-0.7,0.8-1.7,0.8-2.8c0-1.9-1.2-3.3-3.7-4.2c-2.5-0.9-5.9-1.9-10.4-2.8
	c-1.8-0.4-3.6-0.9-5.3-1.4c-1.7-0.6-3.3-1.3-4.6-2.2c-1.3-0.9-2.4-2-3.2-3.4c-0.8-1.4-1.2-3.1-1.2-5c0-2.9,0.6-5.3,1.7-7.2
	c1.1-1.9,2.6-3.3,4.5-4.4c1.9-1.1,4-1.8,6.3-2.3c2.3-0.4,4.7-0.7,7.2-0.7c2.5,0,4.8,0.2,7.1,0.7c2.3,0.5,4.4,1.3,6.2,2.4
	c1.8,1.1,3.3,2.6,4.5,4.4c1.2,1.8,1.9,4.2,2.2,7h-11.8c-0.2-2.4-1.1-4-2.7-4.9c-1.6-0.9-3.6-1.3-5.8-1.3c-0.7,0-1.5,0-2.3,0.1
	c-0.8,0.1-1.6,0.3-2.2,0.6c-0.7,0.3-1.2,0.7-1.7,1.3c-0.5,0.6-0.7,1.3-0.7,2.2c0,1.1,0.4,2,1.2,2.7c0.8,0.7,1.9,1.3,3.2,1.7
	c1.3,0.4,2.8,0.8,4.5,1.2c1.7,0.4,3.4,0.7,5.2,1.1c1.8,0.4,3.6,0.9,5.3,1.5c1.7,0.6,3.3,1.4,4.6,2.3c1.3,1,2.4,2.2,3.2,3.6
	c0.8,1.4,1.2,3.2,1.2,5.3c0,3-0.6,5.5-1.8,7.5c-1.2,2-2.8,3.6-4.7,4.9c-1.9,1.2-4.1,2.1-6.6,2.6c-2.5,0.5-5,0.7-7.6,0.7
	c-2.6,0-5.2-0.3-7.7-0.8c-2.5-0.5-4.8-1.4-6.7-2.6c-2-1.2-3.6-2.8-4.8-4.9c-1.3-2-1.9-4.5-2.1-7.6h11.8
	C152.5,292.4,152.7,293.5,153.3,294.5L153.3,294.5z M346.8,243.1v33.6l15.7-16.3h14.7l-17.1,16.7l19,28.7h-15.1l-12.4-20.2l-4.8,4.6
	v15.6h-12.5v-62.6H346.8L346.8,243.1z M391.5,294.9c1.9,1.8,4.6,2.7,8.1,2.7c2.5,0,4.7-0.6,6.5-1.9c1.8-1.3,2.9-2.6,3.3-4h11
	c-1.8,5.4-4.4,9.3-8.1,11.7c-3.6,2.3-8,3.5-13.1,3.5c-3.6,0-6.8-0.6-9.6-1.7c-2.9-1.1-5.3-2.8-7.3-4.9c-2-2.1-3.5-4.6-4.6-7.5
	c-1.1-2.9-1.6-6.1-1.6-9.7c0-3.4,0.6-6.5,1.7-9.5c1.1-2.9,2.7-5.5,4.7-7.6c2-2.1,4.5-3.8,7.3-5c2.8-1.2,6-1.8,9.4-1.8
	c3.9,0,7.2,0.7,10.1,2.2c2.9,1.5,5.2,3.5,7.1,6c1.8,2.5,3.2,5.4,4,8.6c0.8,3.2,1.1,6.6,0.9,10.1h-32.7
	C388.6,290.1,389.6,293.1,391.5,294.9L391.5,294.9z M405.5,271c-1.5-1.6-3.8-2.5-6.8-2.5c-2,0-3.6,0.3-5,1c-1.3,0.7-2.4,1.5-3.2,2.5
	c-0.8,1-1.3,2.1-1.7,3.2c-0.3,1.1-0.5,2.1-0.6,3h20.2C408.1,275,407,272.6,405.5,271z M56.2,243.1V265h-0.1
	c-1.6-2.1-3.3-3.3-5.7-4.3c-2.6-1.1-5-1.5-7.7-1.5c-3.3,0-6.3,0.7-8.8,2c-2.5,1.3-4.6,3.1-6.3,5.2c-1.7,2.2-2.9,4.7-3.8,7.5
	c-0.8,2.8-1.3,5.8-1.3,8.8c0,3.2,0.4,6.2,1.3,9.1c0.8,2.9,2.1,5.5,3.8,7.8c1.7,2.3,3.8,4,6.4,5.4c2.6,1.3,5.5,2,8.9,2
	c2.2,0,5.2-0.3,7.6-1.3c2.4-1,4.3-2.2,6.1-4.6h0.2v4.8h11.8v-62.6H56.2z M45.3,297.7c-8.2,0-11.7-7.6-11.7-14.7
	c0-7.5,3-14.7,11.7-14.7c8.6,0,11.4,7.2,11.4,14.6C56.7,290.4,54.1,297.7,45.3,297.7L45.3,297.7z M187.4,243.1v62.6h11.8V301h0.2
	c1.8,2.4,3.7,3.6,6.1,4.6c2.4,1,5.4,1.3,7.6,1.3c3.4,0,6.4-0.7,8.9-2c2.6-1.3,4.7-3.1,6.4-5.4c1.7-2.3,2.9-4.8,3.8-7.8
	c0.8-2.9,1.3-6,1.3-9.1c0-3-0.4-6-1.3-8.8c-0.8-2.8-2.1-5.3-3.8-7.5c-1.7-2.2-3.8-3.9-6.3-5.2c-2.5-1.3-5.4-2-8.8-2
	c-2.7,0-5.2,0.4-7.7,1.5c-2.4,1.1-4.1,2.3-5.7,4.3h-0.1v-21.9H187.4L187.4,243.1z M199.4,282.9c0-7.4,2.8-14.6,11.4-14.6
	c8.7,0,11.7,7.2,11.7,14.7c0,7.1-3.5,14.7-11.7,14.7C202,297.7,199.4,290.4,199.4,282.9z"/>
</svg>
