<?xml version="1.0" encoding="UTF-8"?> <svg xmlns="http://www.w3.org/2000/svg" width="123" height="25" viewBox="0 0 123 25" fill="none" tabindex="0" role="button" alt="Moank. Human Loans For Humans" class="Icon__StyledIcon-sc-1ff5hz7-0 hcBpQK"><path d="M.432 1.152h4.704l6.496 18.176L18.32 1.152h4.544V24h-3.552V7.392L13.04 24H9.968L3.92 7.424V24H.432V1.152zM37.985 24.576c-1.643 0-3.125-.267-4.448-.8a9.617 9.617 0 01-3.36-2.368c-.939-1.024-1.664-2.272-2.176-3.744-.49-1.493-.736-3.179-.736-5.056 0-1.877.256-3.562.768-5.056.512-1.493 1.237-2.752 2.176-3.776A9.038 9.038 0 0133.6 1.408c1.323-.554 2.784-.832 4.384-.832 1.621 0 3.093.278 4.416.832a8.919 8.919 0 013.36 2.336c.917 1.024 1.621 2.283 2.112 3.776.512 1.472.768 3.147.768 5.024 0 1.899-.245 3.595-.736 5.088-.49 1.472-1.195 2.73-2.112 3.776a9.241 9.241 0 01-3.36 2.368c-1.301.534-2.784.8-4.448.8zm-.032-3.328c2.197 0 3.861-.768 4.992-2.304 1.13-1.557 1.696-3.68 1.696-6.368 0-1.344-.15-2.55-.448-3.616-.277-1.066-.693-1.973-1.248-2.72a5.625 5.625 0 00-2.08-1.728c-.832-.405-1.803-.608-2.912-.608-1.11 0-2.08.203-2.912.608a5.903 5.903 0 00-2.112 1.728c-.555.747-.97 1.654-1.248 2.72-.277 1.067-.416 2.272-.416 3.616 0 2.688.555 4.81 1.664 6.368 1.13 1.536 2.805 2.304 5.024 2.304zM58.414 1.152h3.84L70.958 24H66.83l-2.144-5.824h-8.864L53.71 24h-4l8.704-22.848zm5.216 13.792l-3.392-9.408-3.36 9.408h6.752zM74.048 1.152h3.584l10.496 16.512V1.152h3.776V24H88.32L77.792 7.552V24h-3.744V1.152zM97.087 1.152h3.872V11.2l9.568-10.048h4.288l-7.872 8.576L115.679 24h-4.384l-7.072-11.776-3.264 3.296V24h-3.872V1.152zM122.419 19.552V24h-3.872v-4.448h3.872z" fill="#2F3131"></path></svg> 