<?xml version="1.0" encoding="utf-8"?>
<!-- Generator: Adobe Illustrator 19.2.1, SVG Export Plug-In . SVG Version: 6.00 Build 0)  -->
<svg version="1.1" id="layer" xmlns="http://www.w3.org/2000/svg" xmlns:xlink="http://www.w3.org/1999/xlink" x="0px" y="0px"
	 viewBox="0 0 652 652" style="enable-background:new 0 0 652 652;" xml:space="preserve">
<style type="text/css">
	.st0{fill:#0000A0;}
</style>
<path class="st0" d="M112.4,348.9l-64.1-76.1H26.1v113.7h23.1v-76.1l65,76.1h19.7V272.8h-21.4V348.9z M306.4,309.5V289
	c-18.8,0-24.8,9.4-27.4,14.5v-11.1h-21.4v45.3v48.7h21.4v-47C279.9,318.1,291.9,309.5,306.4,309.5z M196.2,366.8
	c-15.4,0-28.2-12.8-28.2-28.2s12.8-28.2,28.2-28.2s28.2,12.8,28.2,28.2C224.4,354,211.6,366.8,196.2,366.8z M196.2,289
	c-27.4,0-49.6,22.2-49.6,49.6s22.2,49.6,49.6,49.6s48.7-22.2,48.7-49.6C244.9,311.2,222.7,289,196.2,289z M386.8,339.5
	c-0.9,16.2-15.4,29.1-31.6,26.5c-12.8-1.7-23.1-12-24.8-24.8c-1.7-17.1,11.1-31.6,28.2-31.6c15.4,0,27.4,12,28.2,26.5
	C386.8,336,386.8,339.5,386.8,339.5z M408.2,262.5h-20.5v36.8c-5.1-6-19.7-11.1-32.5-10.3c-23.9,1.7-43.6,21.4-45.3,46.2
	c-1.7,29.1,20.5,52.1,48.7,52.1c10.3,0,24.8-5.1,30.8-14.5v12.8h18.8v-46.2v-0.9v-0.9V262.5z M441.5,336c0-10.3,6-22.2,19.7-26.5
	c15.4-6,28.2,1.7,34.2,12L441.5,336z M468.8,289c-25.6,0.9-47.9,20.5-47.9,49.6c0,26.5,21.4,48.7,49.6,48.7
	c19.7,0,38.5-11.1,46.2-30.8l-18.8-6c-3.4,7.7-12,14.5-21.4,16.2c-12.8,2.6-25.6-6-30.8-14.5l73.5-20.5
	C516.7,313.8,499.6,288.2,468.8,289z M605.6,339.5c-0.9,16.2-15.4,29.1-31.6,26.5c-12.8-1.7-23.1-12-24.8-24.8
	c-1.7-17.1,11.1-31.6,28.2-31.6c15.4,0,27.4,12,28.2,26.5C605.6,336,605.6,339.5,605.6,339.5z M573.1,289
	c-23.9,1.7-43.6,21.4-45.3,46.2c-1.7,29.1,20.5,52.1,48.7,52.1c10.3,0,23.9-5.1,30.8-16.2v14.5h18.8v-46.2
	C626.1,308.7,601.3,287.3,573.1,289z"/>
</svg>
