<?xml version="1.0" encoding="UTF-8" standalone="no"?>
<svg
   xmlns:dc="http://purl.org/dc/elements/1.1/"
   xmlns:cc="http://creativecommons.org/ns#"
   xmlns:rdf="http://www.w3.org/1999/02/22-rdf-syntax-ns#"
   xmlns:svg="http://www.w3.org/2000/svg"
   xmlns="http://www.w3.org/2000/svg"
   xmlns:sodipodi="http://sodipodi.sourceforge.net/DTD/sodipodi-0.dtd"
   xmlns:inkscape="http://www.inkscape.org/namespaces/inkscape"
   width="87.841667mm"
   height="79.883453mm"
   viewBox="0 0 332 301.92171"
   version="1.1"
   id="svg1103"
   inkscape:version="1.0.1 (3bc2e813f5, 2020-09-07)"
   sodipodi:docname="Skatteverket logo.svg">
  <defs
     id="defs1097" />
  <sodipodi:namedview
     id="base"
     pagecolor="#ffffff"
     bordercolor="#666666"
     borderopacity="1.0"
     inkscape:pageopacity="0.0"
     inkscape:pageshadow="2"
     inkscape:zoom="0.35"
     inkscape:cx="212.42857"
     inkscape:cy="130.96085"
     inkscape:document-units="px"
     inkscape:current-layer="layer1"
     inkscape:document-rotation="0"
     showgrid="false"
     inkscape:window-width="1267"
     inkscape:window-height="728"
     inkscape:window-x="83"
     inkscape:window-y="0"
     inkscape:window-maximized="0" />
  <metadata
     id="metadata1100">
    <rdf:RDF>
      <cc:Work
         rdf:about="">
        <dc:format>image/svg+xml</dc:format>
        <dc:type
           rdf:resource="http://purl.org/dc/dcmitype/StillImage" />
        <dc:title></dc:title>
      </cc:Work>
    </rdf:RDF>
  </metadata>
  <g
     inkscape:label="Layer 1"
     inkscape:groupmode="layer"
     id="layer1"
     transform="translate(-162.57143,-389.03915)">
    <path
       style="fill:#ffcc00;fill-opacity:1;fill-rule:nonzero;stroke:none;stroke-width:2.40709"
       d="m 347.99303,521.79612 c 29.72199,8.92318 54.80843,32.42997 61.22108,64.38041 2.88664,15.01615 0.66761,31.37688 -5.02103,46.19555 l -25.90449,-0.0751 c 6.07415,-10.65338 10.78492,-22.02128 11.98845,-34.35764 2.07802,-21.75788 -5.88609,-47.38031 -24.30602,-61.48437 -5.78266,-4.60734 -11.89444,-8.71633 -18.89006,-11.72521 l 0.91207,-2.93364"
       id="path37" />
    <path
       style="fill:#003366;fill-opacity:1;fill-rule:nonzero;stroke:none;stroke-width:2.40709"
       d="m 427.82209,632.29686 c 9.77883,-28.13291 5.57583,-60.09276 -15.5897,-83.09182 -13.8408,-15.63671 -33.52069,-25.55659 -53.52026,-31.20761 l 0.61117,-3.21573 c 43.52519,10.0609 87.07857,37.05611 94.29047,84.88774 1.67367,10.71909 1.41979,22.03996 -1.45742,32.64625 l -24.33426,-0.0193"
       id="path39" />
    <path
       style="fill:#003366;fill-opacity:1;fill-rule:nonzero;stroke:none;stroke-width:2.40709"
       d="m 338.13898,528.33102 c 7.57858,4.04316 14.34854,9.60016 19.79272,16.81206 16.17267,22.78278 13.32366,46.79732 8.34021,61.44675 -5.04927,16.76505 -14.43317,25.70703 -14.43317,25.70703 l -33.09756,0.10344 c 21.92713,-14.21691 35.21316,-36.71761 36.70821,-62.99822 0.24445,-13.75618 -6.16819,-30.71868 -18.53277,-38.41011 l 1.22236,-2.66102"
       id="path41" />
    <path
       style="fill:#ffcc00;fill-opacity:1;fill-rule:nonzero;stroke:none;stroke-width:2.40709"
       d="m 295.84556,534.37695 c -7.08966,-30.21092 0.76161,-63.68461 25.2557,-85.17922 11.57475,-9.99509 26.86355,-16.23849 42.5379,-18.69259 l 12.86292,22.48189 c -12.26116,0.0469 -24.4753,1.63607 -35.75854,6.75114 -19.89616,9.05483 -38.11863,28.74412 -41.15571,51.74317 -1.10951,7.30592 -1.62666,14.64943 -0.74281,22.21862 l -2.99946,0.67699"
       id="path43" />
    <path
       style="fill:#003366;fill-opacity:1;fill-rule:nonzero;stroke:none;stroke-width:2.40709"
       d="m 351.56607,410.18586 c -29.25187,5.557 -54.63921,25.02063 -64.01372,54.84606 -6.64772,19.79272 -5.42536,41.79508 -0.3385,61.94511 l -3.09349,1.0813 c -12.99455,-42.74476 -11.33968,-93.96136 26.52507,-124.07826 8.45304,-6.78877 18.24128,-12.13892 28.87575,-14.94092 l 12.04489,21.14671"
       id="path45" />
    <path
       style="fill:#003366;fill-opacity:1;fill-rule:nonzero;stroke:none;stroke-width:2.40709"
       d="m 306.43302,539.65189 c -0.28208,-8.58469 1.15652,-17.22579 4.69196,-25.54719 11.67817,-25.36854 33.90618,-34.89349 49.09158,-37.87415 17.04713,-3.98675 29.61856,-0.39492 29.61856,-0.39492 l 16.46417,28.7065 c -23.26233,-11.91325 -49.39249,-12.19533 -72.90868,-0.38551 -12.04489,6.65713 -23.55382,20.67659 -24.04276,35.232 l -2.91483,0.26327"
       id="path47" />
    <path
       style="fill:#003366;fill-opacity:1;fill-rule:nonzero;stroke:none;stroke-width:2.40709"
       d="m 201.24481,588.01007 c 19.84915,22.19981 49.61815,33.91561 79.99832,26.56268 20.3945,-4.5039 38.61697,-16.90608 53.25699,-31.64955 l 2.51994,2.09681 c -29.91945,33.17279 -74.65758,58.16521 -119.98807,41.25913 -10.17375,-3.74229 -19.81153,-9.37451 -27.68162,-17.03772 l 11.89444,-21.23135"
       id="path49" />
    <path
       style="fill:#003366;fill-opacity:1;fill-rule:nonzero;stroke:none;stroke-width:2.40709"
       d="m 335.4498,559.91475 c -7.21189,4.67315 -15.35463,7.89828 -24.30603,9.15823 -27.76623,3.0747 -47.38029,-11.05759 -57.77029,-22.5289 C 241.16876,533.99144 237.76497,521.373 237.76497,521.373 l 16.10687,-28.91337 c 1.78651,26.07375 15.01611,48.61207 37.26295,62.66912 11.91325,6.8922 29.85364,9.51556 42.58491,2.43531 l 1.7301,2.35069"
       id="path51" />
    <path
       style="clip-rule:nonzero;fill:#003366;fill-opacity:1;fill-rule:nonzero;stroke:none;stroke-width:2.40709"
       d="m 186.05003,656.17036 c -2.59515,-1.12832 -5.48179,-1.7771 -8.37783,-1.78649 -2.82082,0 -6.48788,1.23173 -6.48788,5.71686 -0.009,7.13665 18.03443,4.14657 18.01562,17.94977 -0.009,9.02661 -7.14606,12.4304 -15.46748,12.42098 -4.48509,0 -6.48788,-0.59236 -10.54985,-1.60786 l 0.77102,-7.42814 c 2.83022,1.54203 6.07417,2.54814 9.31809,2.54814 3.12171,0.009 7.31533,-1.57966 7.32472,-5.29374 0.009,-7.84185 -18.04381,-4.62612 -18.025,-18.25067 0.009,-9.19586 7.15546,-12.55262 14.40497,-12.54323 3.53541,0.009 6.84516,0.47954 9.84463,1.49504 l -0.77101,6.77934"
       id="path53"
       clip-path="none" />
    <path
       style="fill:#003366;fill-opacity:1;fill-rule:nonzero;stroke:none;stroke-width:2.40709"
       d="m 195.02963,645.5641 7.89828,0.009 -0.0376,26.00792 h 0.12222 l 9.44972,-12.13891 9.3181,0.0193 -11.33968,13.54932 12.71248,16.82146 -10.02331,-0.009 -10.12672,-14.76227 h -0.11283 l -0.0188,14.74347 -7.90769,-0.009 0.0659,-44.23039"
       id="path57"
       clip-path="none" />
    <path
       style="clip-rule:nonzero;fill:#003366;fill-opacity:1;fill-rule:nonzero;stroke:none;stroke-width:2.40709"
       d="m 227.21512,668.24347 c 2.66097,-2.00277 6.02714,-3.29096 9.38392,-3.29096 4.66374,0.009 6.83578,1.66429 6.83578,6.56309 l -4.36287,-0.009 c -3.30975,-0.009 -7.20247,0.28207 -10.21135,1.74891 -3.00887,1.47621 -5.1903,4.12778 -5.1997,8.6693 -0.009,5.77327 5.23731,9.02661 10.60626,9.03601 3.59183,0.009 7.55038,-1.88055 9.38392,-5.23731 h 0.11283 c 0.0563,0.94967 0.0563,2.95244 0.34791,4.54152 l 6.958,0.009 c -0.16916,-2.36008 -0.28209,-4.48509 -0.3385,-6.77934 -0.0563,-2.23786 -0.11283,-4.54153 -0.11283,-7.60682 l 0.009,-3.89272 c 0.009,-8.9702 -3.8175,-12.80651 -13.07918,-12.81591 -3.35676,-0.009 -7.48455,0.87444 -10.55925,2.28487 z m 3.99615,13.22023 c 0.009,-4.66374 5.25613,-5.24672 8.79154,-5.23733 h 3.42261 c 0,2.36008 -0.35731,4.5415 -1.65489,6.2528 -1.24116,1.64548 -3.1311,2.70799 -5.557,2.70799 -2.83022,-0.009 -5.00226,-1.12833 -5.00226,-3.72346"
       id="path59" />
    <path
       style="clip-rule:nonzero;fill:#003366;fill-opacity:1;fill-rule:nonzero;stroke:none;stroke-width:2.40709"
       d="m 259.03392,665.30042 -5.83908,-0.009 0.009,-5.78268 5.83908,0.009 0.009,-6.07415 7.89828,-2.52933 -0.009,8.61286 7.02384,0.009 -0.009,5.78266 -7.02383,-0.009 -0.0188,14.15108 c 0,2.59515 0.70521,5.01167 3.71407,5.02106 1.41041,0 2.77381,-0.29147 3.59185,-0.82744 l 0.23507,6.25281 c -1.65488,0.47014 -3.4884,0.70521 -5.84848,0.6958 -6.18699,0 -9.60017,-3.8363 -9.59077,-9.85406 l 0.0188,-15.44866"
       id="path63" />
    <path
       style="clip-rule:nonzero;fill:#003366;fill-opacity:1;fill-rule:nonzero;stroke:none;stroke-width:2.40709"
       d="m 281.99535,665.32862 -5.8391,-0.009 0.009,-5.78266 5.8391,0.009 0.009,-6.07415 7.90769,-2.51994 -0.009,8.60348 7.01441,0.009 -0.009,5.78266 -7.01442,-0.009 -0.0188,14.15109 c -0.009,2.59515 0.69581,5.01165 3.70467,5.02105 1.41981,0 2.7738,-0.29147 3.60124,-0.82743 l 0.22566,6.2528 c -1.65486,0.47015 -3.479,0.70522 -5.83908,0.70522 -6.19639,-0.009 -9.60958,-3.84572 -9.60018,-9.86347 l 0.0188,-15.44866"
       id="path67" />
    <path
       style="clip-rule:nonzero;fill:#003366;fill-opacity:1;fill-rule:nonzero;stroke:none;stroke-width:2.40709"
       d="m 325.89665,681.8398 c -2.95246,1.64548 -6.25281,3.05589 -10.08912,3.05589 -4.88942,-0.009 -8.31201,-2.79262 -8.65991,-7.68203 l 20.99627,0.0282 c 0.0188,-10.61569 -3.15931,-18.34471 -14.42376,-18.36352 -9.43093,-0.009 -14.10408,7.2401 -14.11349,16.02223 -0.0188,9.96689 5.81088,15.75896 15.84358,15.76835 4.24063,0.009 7.55038,-0.80862 10.43702,-2.39768 z m -18.73963,-10.05153 c 0.35731,-4.07136 2.60456,-7.13665 7.03323,-7.12723 4.41929,0.009 6.1776,3.30975 6.41267,7.14606 l -13.4459,-0.0193"
       id="path71" />
    <path
       style="clip-rule:nonzero;fill:#003366;fill-opacity:1;fill-rule:nonzero;stroke:none;stroke-width:2.40709"
       d="m 329.01834,659.61177 8.49066,0.009 7.52216,22.13399 h 0.11283 l 7.35292,-22.1152 7.89828,0.0193 -11.24564,30.35199 -8.91377,-0.009 -11.21744,-30.38958"
       id="path75" />
    <path
       style="clip-rule:nonzero;fill:#003366;fill-opacity:1;fill-rule:nonzero;stroke:none;stroke-width:2.40709"
       d="m 387.51264,681.93382 c -2.95244,1.64548 -6.2528,3.05589 -10.08911,3.04648 -4.89881,-0.009 -8.31199,-2.78321 -8.65989,-7.67262 l 20.99627,0.0282 c 0.0188,-10.61566 -3.15931,-18.34471 -14.42378,-18.3635 -9.43093,-0.009 -14.10408,7.23067 -14.11349,16.02223 -0.0188,9.96688 5.82029,15.74954 15.83419,15.76835 4.25002,0 7.55038,-0.81805 10.44643,-2.40709 z m -18.7396,-10.06091 c 0.35729,-4.06198 2.60454,-7.12727 7.03323,-7.11785 4.41928,0 6.18698,3.30976 6.41265,7.13666 l -13.44588,-0.0188"
       id="path79" />
    <path
       style="clip-rule:nonzero;fill:#003366;fill-opacity:1;fill-rule:nonzero;stroke:none;stroke-width:2.40709"
       d="m 395.37332,659.7058 7.02384,0.009 -0.009,6.9016 h 0.11283 c 0.35731,-2.83022 3.61062,-7.60681 8.3308,-7.59739 0.76163,0 1.58906,0 2.41651,0.24446 l -0.009,7.9547 c -0.7052,-0.41372 -2.12501,-0.64878 -3.54482,-0.64878 -6.42206,-0.009 -6.44085,8.0111 -6.44085,12.37397 l -0.0188,11.14223 -7.89828,-0.009 0.0376,-30.37078"
       id="path83" />
    <path
       style="clip-rule:nonzero;fill:#003366;fill-opacity:1;fill-rule:nonzero;stroke:none;stroke-width:2.40709"
       d="m 416.7551,645.87439 7.90768,0.009 -0.0376,26.01731 h 0.11284 l 9.45913,-12.13891 9.31809,0.009 -11.34908,13.5493 12.71248,16.83088 -10.02329,-0.0193 -10.11733,-14.76226 h -0.12222 l -0.0193,14.74345 -7.90771,-0.009 0.0657,-44.23039"
       id="path87" />
    <path
       style="clip-rule:nonzero;fill:#003366;fill-opacity:1;fill-rule:nonzero;stroke:none;stroke-width:2.40709"
       d="m 470.08733,682.04665 c -2.95248,1.64548 -6.25282,3.05587 -10.08913,3.05587 -4.89882,-0.009 -8.31199,-2.78319 -8.65992,-7.682 l 20.9963,0.0282 c 0.009,-10.61567 -3.15932,-18.34471 -14.42379,-18.36352 -9.44031,-0.009 -14.10406,7.2401 -14.11348,16.02223 -0.0193,9.9669 5.81088,15.75898 15.83419,15.76837 4.25002,0.009 7.55979,-0.80864 10.44642,-2.39768 z m -18.73962,-10.0515 c 0.35731,-4.07137 2.60454,-7.13666 7.03324,-7.12727 4.41925,0.009 6.18699,3.30975 6.41265,7.14606 l -13.44589,-0.0193"
       id="path91" />
    <path
       style="clip-rule:nonzero;fill:#003366;fill-opacity:1;fill-rule:nonzero;stroke:none;stroke-width:2.40709"
       d="m 479.15154,665.61072 -5.82967,-0.009 0.009,-5.78266 5.82969,0.009 0.009,-6.07415 7.90769,-2.51994 -0.009,8.6035 7.01443,0.009 -0.009,5.78267 -7.01441,-0.009 -0.0193,14.15111 c 0,2.59515 0.69583,5.01164 3.70468,5.02105 1.41982,0 2.77381,-0.29151 3.60124,-0.82743 l 0.22554,6.25278 c -1.65486,0.47016 -3.479,0.70522 -5.83908,0.70522 -6.18698,-0.009 -9.60958,-3.8457 -9.60018,-9.86345 l 0.0193,-15.44867"
       id="path95" />
    <path
       style="fill:#ffcc00;fill-opacity:1;fill-rule:nonzero;stroke:none;stroke-width:2.40709"
       d="m 336.40887,571.19801 c -22.1904,21.69206 -54.90246,32.28894 -85.96904,22.44429 -14.5366,-4.72957 -27.78502,-14.58361 -37.99638,-26.73193 l 12.59025,-22.63235 c 6.37504,10.47463 14.05706,20.09362 24.26842,27.10805 18.0438,12.34577 44.31499,17.75233 65.57453,8.45304 6.82638,-2.83022 13.38007,-6.187 19.39781,-10.85074 l 2.13441,2.20964"
       id="path99" />
  </g>
</svg>
